<mxfile host="app.diagrams.net" modified="2020-09-16T15:26:00.672Z" agent="5.0 (Macintosh; Intel Mac OS X 10_15_6) AppleWebKit/537.36 (KHTML, like Gecko) Chrome/85.0.4183.83 Safari/537.36" etag="yMGLbGQ2y5qUsaTwOhyQ" version="13.7.1" type="github">
  <diagram id="wSwMXBMUbhgjDpTK5RTU" name="Page-1">
    <mxGraphModel dx="1113" dy="694" grid="1" gridSize="10" guides="1" tooltips="1" connect="1" arrows="1" fold="1" page="1" pageScale="1" pageWidth="850" pageHeight="1100" math="0" shadow="0">
      <root>
        <mxCell id="0" />
        <mxCell id="1" parent="0" />
        <mxCell id="1BE5Hf5gePFDggwTTNd7-33" style="edgeStyle=none;rounded=0;orthogonalLoop=1;jettySize=auto;html=1;exitX=1;exitY=0.5;exitDx=0;exitDy=0;endArrow=none;endFill=0;" edge="1" parent="1" source="1BE5Hf5gePFDggwTTNd7-2">
          <mxGeometry relative="1" as="geometry">
            <mxPoint x="239.9999999999999" y="424.72413793103453" as="targetPoint" />
          </mxGeometry>
        </mxCell>
        <mxCell id="1BE5Hf5gePFDggwTTNd7-34" style="edgeStyle=none;rounded=0;orthogonalLoop=1;jettySize=auto;html=1;exitX=0.5;exitY=0;exitDx=0;exitDy=0;endArrow=none;endFill=0;" edge="1" parent="1" source="1BE5Hf5gePFDggwTTNd7-2">
          <mxGeometry relative="1" as="geometry">
            <mxPoint x="405.9310344827586" y="479.9999999999999" as="targetPoint" />
          </mxGeometry>
        </mxCell>
        <mxCell id="1BE5Hf5gePFDggwTTNd7-79" value="OUT" style="edgeLabel;html=1;align=center;verticalAlign=middle;resizable=0;points=[];fontColor=#190033;" vertex="1" connectable="0" parent="1BE5Hf5gePFDggwTTNd7-34">
          <mxGeometry x="0.7732" y="1" relative="1" as="geometry">
            <mxPoint x="-0.94" y="18.96" as="offset" />
          </mxGeometry>
        </mxCell>
        <mxCell id="1BE5Hf5gePFDggwTTNd7-2" value="FINE SHIFT" style="shape=trapezoid;perimeter=trapezoidPerimeter;whiteSpace=wrap;html=1;fixedSize=1;rotation=0;direction=east;flipH=0;flipV=1;" vertex="1" parent="1">
          <mxGeometry x="280" y="400" width="252" height="50" as="geometry" />
        </mxCell>
        <mxCell id="1BE5Hf5gePFDggwTTNd7-32" style="edgeStyle=none;rounded=0;orthogonalLoop=1;jettySize=auto;html=1;exitX=1;exitY=0.5;exitDx=0;exitDy=0;endArrow=none;endFill=0;" edge="1" parent="1" source="1BE5Hf5gePFDggwTTNd7-13">
          <mxGeometry relative="1" as="geometry">
            <mxPoint x="239.9999999999999" y="304.72413793103453" as="targetPoint" />
          </mxGeometry>
        </mxCell>
        <mxCell id="1BE5Hf5gePFDggwTTNd7-35" value="B(4) &amp;amp; B(3)" style="edgeLabel;html=1;align=center;verticalAlign=middle;resizable=0;points=[];" vertex="1" connectable="0" parent="1BE5Hf5gePFDggwTTNd7-32">
          <mxGeometry x="0.7077" y="-1" relative="1" as="geometry">
            <mxPoint x="-51.31" y="-13.76" as="offset" />
          </mxGeometry>
        </mxCell>
        <mxCell id="1BE5Hf5gePFDggwTTNd7-59" style="edgeStyle=orthogonalEdgeStyle;rounded=0;orthogonalLoop=1;jettySize=auto;html=1;entryX=0.079;entryY=0.989;entryDx=0;entryDy=0;entryPerimeter=0;endArrow=none;endFill=0;fontColor=#CC0000;" edge="1" parent="1" source="1BE5Hf5gePFDggwTTNd7-13" target="1BE5Hf5gePFDggwTTNd7-2">
          <mxGeometry relative="1" as="geometry" />
        </mxCell>
        <mxCell id="1BE5Hf5gePFDggwTTNd7-60" style="edgeStyle=orthogonalEdgeStyle;rounded=0;orthogonalLoop=1;jettySize=auto;html=1;exitX=0.5;exitY=1;exitDx=0;exitDy=0;entryX=0.196;entryY=1.008;entryDx=0;entryDy=0;entryPerimeter=0;endArrow=none;endFill=0;fontColor=#CC0000;" edge="1" parent="1" source="1BE5Hf5gePFDggwTTNd7-13" target="1BE5Hf5gePFDggwTTNd7-2">
          <mxGeometry relative="1" as="geometry" />
        </mxCell>
        <mxCell id="1BE5Hf5gePFDggwTTNd7-61" style="edgeStyle=orthogonalEdgeStyle;rounded=0;orthogonalLoop=1;jettySize=auto;html=1;exitX=0.5;exitY=1;exitDx=0;exitDy=0;endArrow=none;endFill=0;fontColor=#CC0000;entryX=0.316;entryY=1.007;entryDx=0;entryDy=0;entryPerimeter=0;" edge="1" parent="1" source="1BE5Hf5gePFDggwTTNd7-13" target="1BE5Hf5gePFDggwTTNd7-2">
          <mxGeometry relative="1" as="geometry">
            <mxPoint x="350" y="400" as="targetPoint" />
          </mxGeometry>
        </mxCell>
        <mxCell id="1BE5Hf5gePFDggwTTNd7-62" style="edgeStyle=orthogonalEdgeStyle;rounded=0;orthogonalLoop=1;jettySize=auto;html=1;entryX=0.437;entryY=1;entryDx=0;entryDy=0;entryPerimeter=0;endArrow=none;endFill=0;fontColor=#CC0000;" edge="1" parent="1" source="1BE5Hf5gePFDggwTTNd7-13" target="1BE5Hf5gePFDggwTTNd7-2">
          <mxGeometry relative="1" as="geometry" />
        </mxCell>
        <mxCell id="1BE5Hf5gePFDggwTTNd7-63" style="edgeStyle=orthogonalEdgeStyle;rounded=0;orthogonalLoop=1;jettySize=auto;html=1;endArrow=none;endFill=0;fontColor=#CC0000;entryX=0.556;entryY=1.004;entryDx=0;entryDy=0;entryPerimeter=0;" edge="1" parent="1" source="1BE5Hf5gePFDggwTTNd7-13" target="1BE5Hf5gePFDggwTTNd7-2">
          <mxGeometry relative="1" as="geometry">
            <mxPoint x="420" y="401" as="targetPoint" />
          </mxGeometry>
        </mxCell>
        <mxCell id="1BE5Hf5gePFDggwTTNd7-64" style="edgeStyle=orthogonalEdgeStyle;rounded=0;orthogonalLoop=1;jettySize=auto;html=1;entryX=0.676;entryY=0.999;entryDx=0;entryDy=0;entryPerimeter=0;endArrow=none;endFill=0;fontColor=#CC0000;" edge="1" parent="1" source="1BE5Hf5gePFDggwTTNd7-13" target="1BE5Hf5gePFDggwTTNd7-2">
          <mxGeometry relative="1" as="geometry" />
        </mxCell>
        <mxCell id="1BE5Hf5gePFDggwTTNd7-65" style="edgeStyle=orthogonalEdgeStyle;rounded=0;orthogonalLoop=1;jettySize=auto;html=1;entryX=0.794;entryY=1.004;entryDx=0;entryDy=0;entryPerimeter=0;endArrow=none;endFill=0;fontColor=#CC0000;" edge="1" parent="1" source="1BE5Hf5gePFDggwTTNd7-13" target="1BE5Hf5gePFDggwTTNd7-2">
          <mxGeometry relative="1" as="geometry" />
        </mxCell>
        <mxCell id="1BE5Hf5gePFDggwTTNd7-66" style="edgeStyle=orthogonalEdgeStyle;rounded=0;orthogonalLoop=1;jettySize=auto;html=1;entryX=0.91;entryY=1.006;entryDx=0;entryDy=0;entryPerimeter=0;endArrow=none;endFill=0;fontColor=#CC0000;" edge="1" parent="1" source="1BE5Hf5gePFDggwTTNd7-13" target="1BE5Hf5gePFDggwTTNd7-2">
          <mxGeometry relative="1" as="geometry" />
        </mxCell>
        <mxCell id="1BE5Hf5gePFDggwTTNd7-13" value="COARSE SHIFT" style="shape=trapezoid;perimeter=trapezoidPerimeter;whiteSpace=wrap;html=1;fixedSize=1;rotation=0;flipV=1;" vertex="1" parent="1">
          <mxGeometry x="280" y="280" width="252" height="50" as="geometry" />
        </mxCell>
        <mxCell id="1BE5Hf5gePFDggwTTNd7-49" style="edgeStyle=orthogonalEdgeStyle;rounded=0;orthogonalLoop=1;jettySize=auto;html=1;exitX=0.5;exitY=0;exitDx=0;exitDy=0;entryX=0.5;entryY=0;entryDx=0;entryDy=0;endArrow=none;endFill=0;" edge="1" parent="1" source="1BE5Hf5gePFDggwTTNd7-26" target="1BE5Hf5gePFDggwTTNd7-44">
          <mxGeometry relative="1" as="geometry">
            <Array as="points">
              <mxPoint x="236" y="130" />
              <mxPoint x="406" y="130" />
            </Array>
          </mxGeometry>
        </mxCell>
        <mxCell id="1BE5Hf5gePFDggwTTNd7-54" style="edgeStyle=orthogonalEdgeStyle;rounded=0;orthogonalLoop=1;jettySize=auto;html=1;entryX=0.25;entryY=0;entryDx=0;entryDy=0;endArrow=none;endFill=0;fontColor=#CC0000;" edge="1" parent="1" source="1BE5Hf5gePFDggwTTNd7-26" target="1BE5Hf5gePFDggwTTNd7-13">
          <mxGeometry relative="1" as="geometry" />
        </mxCell>
        <mxCell id="1BE5Hf5gePFDggwTTNd7-82" style="edgeStyle=orthogonalEdgeStyle;rounded=0;orthogonalLoop=1;jettySize=auto;html=1;exitX=0;exitY=0.5;exitDx=0;exitDy=0;endArrow=none;endFill=0;fontColor=#190033;" edge="1" parent="1" source="1BE5Hf5gePFDggwTTNd7-26">
          <mxGeometry relative="1" as="geometry">
            <mxPoint x="159.9999999999999" y="179.8965517241379" as="targetPoint" />
          </mxGeometry>
        </mxCell>
        <mxCell id="1BE5Hf5gePFDggwTTNd7-26" value="MASK00" style="shape=trapezoid;perimeter=trapezoidPerimeter;whiteSpace=wrap;html=1;fixedSize=1;rotation=0;horizontal=1;flipV=1;flipH=0;" vertex="1" parent="1">
          <mxGeometry x="170" y="160" width="132" height="40" as="geometry" />
        </mxCell>
        <mxCell id="1BE5Hf5gePFDggwTTNd7-36" value="B(2) &amp;amp; B(1) &amp;amp; B(0)" style="edgeLabel;html=1;align=center;verticalAlign=middle;resizable=0;points=[];" vertex="1" connectable="0" parent="1">
          <mxGeometry x="229.9975472380869" y="410.00410917869453" as="geometry" />
        </mxCell>
        <mxCell id="1BE5Hf5gePFDggwTTNd7-50" style="edgeStyle=orthogonalEdgeStyle;rounded=0;orthogonalLoop=1;jettySize=auto;html=1;exitX=0.5;exitY=0;exitDx=0;exitDy=0;entryX=0.5;entryY=0;entryDx=0;entryDy=0;endArrow=none;endFill=0;" edge="1" parent="1" source="1BE5Hf5gePFDggwTTNd7-44" target="1BE5Hf5gePFDggwTTNd7-46">
          <mxGeometry relative="1" as="geometry">
            <Array as="points">
              <mxPoint x="406" y="130" />
              <mxPoint x="576" y="130" />
            </Array>
          </mxGeometry>
        </mxCell>
        <mxCell id="1BE5Hf5gePFDggwTTNd7-51" value="A" style="edgeStyle=orthogonalEdgeStyle;rounded=0;orthogonalLoop=1;jettySize=auto;html=1;exitX=0.5;exitY=0;exitDx=0;exitDy=0;endArrow=none;endFill=0;" edge="1" parent="1" source="1BE5Hf5gePFDggwTTNd7-44">
          <mxGeometry x="1" y="10" relative="1" as="geometry">
            <mxPoint x="405.9310344827586" y="100" as="targetPoint" />
            <mxPoint x="10" y="-10" as="offset" />
          </mxGeometry>
        </mxCell>
        <mxCell id="1BE5Hf5gePFDggwTTNd7-55" style="edgeStyle=orthogonalEdgeStyle;rounded=0;orthogonalLoop=1;jettySize=auto;html=1;exitX=0.5;exitY=1;exitDx=0;exitDy=0;entryX=0.5;entryY=0;entryDx=0;entryDy=0;endArrow=none;endFill=0;fontColor=#CC0000;" edge="1" parent="1" source="1BE5Hf5gePFDggwTTNd7-44" target="1BE5Hf5gePFDggwTTNd7-13">
          <mxGeometry relative="1" as="geometry" />
        </mxCell>
        <mxCell id="1BE5Hf5gePFDggwTTNd7-83" style="edgeStyle=orthogonalEdgeStyle;rounded=0;orthogonalLoop=1;jettySize=auto;html=1;exitX=0;exitY=0.5;exitDx=0;exitDy=0;endArrow=none;endFill=0;fontColor=#190033;" edge="1" parent="1" source="1BE5Hf5gePFDggwTTNd7-44">
          <mxGeometry relative="1" as="geometry">
            <mxPoint x="329.9999999999999" y="179.8965517241379" as="targetPoint" />
          </mxGeometry>
        </mxCell>
        <mxCell id="1BE5Hf5gePFDggwTTNd7-86" value="SEL" style="edgeLabel;html=1;align=center;verticalAlign=middle;resizable=0;points=[];fontColor=#190033;" vertex="1" connectable="0" parent="1BE5Hf5gePFDggwTTNd7-83">
          <mxGeometry x="1" y="-2" relative="1" as="geometry">
            <mxPoint x="-2" y="-10.03" as="offset" />
          </mxGeometry>
        </mxCell>
        <mxCell id="1BE5Hf5gePFDggwTTNd7-44" value="MASK00" style="shape=trapezoid;perimeter=trapezoidPerimeter;whiteSpace=wrap;html=1;fixedSize=1;rotation=0;horizontal=1;flipV=1;flipH=0;" vertex="1" parent="1">
          <mxGeometry x="340" y="160" width="132" height="40" as="geometry" />
        </mxCell>
        <mxCell id="1BE5Hf5gePFDggwTTNd7-56" style="edgeStyle=orthogonalEdgeStyle;rounded=0;orthogonalLoop=1;jettySize=auto;html=1;exitX=0.5;exitY=1;exitDx=0;exitDy=0;entryX=0.75;entryY=0;entryDx=0;entryDy=0;endArrow=none;endFill=0;fontColor=#CC0000;" edge="1" parent="1" source="1BE5Hf5gePFDggwTTNd7-46" target="1BE5Hf5gePFDggwTTNd7-13">
          <mxGeometry relative="1" as="geometry" />
        </mxCell>
        <mxCell id="1BE5Hf5gePFDggwTTNd7-84" style="edgeStyle=orthogonalEdgeStyle;rounded=0;orthogonalLoop=1;jettySize=auto;html=1;exitX=0;exitY=0.5;exitDx=0;exitDy=0;endArrow=none;endFill=0;fontColor=#190033;" edge="1" parent="1" source="1BE5Hf5gePFDggwTTNd7-46">
          <mxGeometry relative="1" as="geometry">
            <mxPoint x="500" y="179.8965517241379" as="targetPoint" />
          </mxGeometry>
        </mxCell>
        <mxCell id="1BE5Hf5gePFDggwTTNd7-85" value="SEL" style="edgeLabel;html=1;align=center;verticalAlign=middle;resizable=0;points=[];fontColor=#190033;" vertex="1" connectable="0" parent="1BE5Hf5gePFDggwTTNd7-84">
          <mxGeometry x="1" y="-4" relative="1" as="geometry">
            <mxPoint x="-4" y="-10.03" as="offset" />
          </mxGeometry>
        </mxCell>
        <mxCell id="1BE5Hf5gePFDggwTTNd7-46" value="MASK00" style="shape=trapezoid;perimeter=trapezoidPerimeter;whiteSpace=wrap;html=1;fixedSize=1;rotation=0;horizontal=1;flipV=1;flipH=0;" vertex="1" parent="1">
          <mxGeometry x="510" y="160" width="132" height="40" as="geometry" />
        </mxCell>
        <mxCell id="1BE5Hf5gePFDggwTTNd7-52" value="" style="endArrow=none;html=1;" edge="1" parent="1">
          <mxGeometry width="50" height="50" relative="1" as="geometry">
            <mxPoint x="401" y="120" as="sourcePoint" />
            <mxPoint x="411" y="110" as="targetPoint" />
          </mxGeometry>
        </mxCell>
        <mxCell id="1BE5Hf5gePFDggwTTNd7-53" value="32" style="edgeLabel;html=1;align=center;verticalAlign=middle;resizable=0;points=[];fontColor=#CC0000;" vertex="1" connectable="0" parent="1BE5Hf5gePFDggwTTNd7-52">
          <mxGeometry x="0.1931" relative="1" as="geometry">
            <mxPoint x="-16.85" as="offset" />
          </mxGeometry>
        </mxCell>
        <mxCell id="1BE5Hf5gePFDggwTTNd7-67" value="" style="endArrow=none;html=1;" edge="1" parent="1">
          <mxGeometry width="50" height="50" relative="1" as="geometry">
            <mxPoint x="338" y="265" as="sourcePoint" />
            <mxPoint x="348" y="255" as="targetPoint" />
          </mxGeometry>
        </mxCell>
        <mxCell id="1BE5Hf5gePFDggwTTNd7-68" value="39" style="edgeLabel;html=1;align=center;verticalAlign=middle;resizable=0;points=[];fontColor=#CC0000;" vertex="1" connectable="0" parent="1BE5Hf5gePFDggwTTNd7-67">
          <mxGeometry x="0.1931" relative="1" as="geometry">
            <mxPoint x="-16.85" as="offset" />
          </mxGeometry>
        </mxCell>
        <mxCell id="1BE5Hf5gePFDggwTTNd7-69" value="" style="endArrow=none;html=1;" edge="1" parent="1">
          <mxGeometry width="50" height="50" relative="1" as="geometry">
            <mxPoint x="401.00000000000006" y="265" as="sourcePoint" />
            <mxPoint x="411.00000000000006" y="255" as="targetPoint" />
          </mxGeometry>
        </mxCell>
        <mxCell id="1BE5Hf5gePFDggwTTNd7-70" value="39" style="edgeLabel;html=1;align=center;verticalAlign=middle;resizable=0;points=[];fontColor=#CC0000;" vertex="1" connectable="0" parent="1BE5Hf5gePFDggwTTNd7-69">
          <mxGeometry x="0.1931" relative="1" as="geometry">
            <mxPoint x="-16.85" as="offset" />
          </mxGeometry>
        </mxCell>
        <mxCell id="1BE5Hf5gePFDggwTTNd7-71" value="" style="endArrow=none;html=1;" edge="1" parent="1">
          <mxGeometry width="50" height="50" relative="1" as="geometry">
            <mxPoint x="464" y="265" as="sourcePoint" />
            <mxPoint x="474" y="255" as="targetPoint" />
          </mxGeometry>
        </mxCell>
        <mxCell id="1BE5Hf5gePFDggwTTNd7-72" value="39" style="edgeLabel;html=1;align=center;verticalAlign=middle;resizable=0;points=[];fontColor=#CC0000;" vertex="1" connectable="0" parent="1BE5Hf5gePFDggwTTNd7-71">
          <mxGeometry x="0.1931" relative="1" as="geometry">
            <mxPoint x="-16.85" as="offset" />
          </mxGeometry>
        </mxCell>
        <mxCell id="1BE5Hf5gePFDggwTTNd7-75" value="" style="endArrow=none;html=1;" edge="1" parent="1">
          <mxGeometry width="50" height="50" relative="1" as="geometry">
            <mxPoint x="401" y="352" as="sourcePoint" />
            <mxPoint x="411" y="342" as="targetPoint" />
          </mxGeometry>
        </mxCell>
        <mxCell id="1BE5Hf5gePFDggwTTNd7-76" value="39" style="edgeLabel;html=1;align=center;verticalAlign=middle;resizable=0;points=[];fontColor=#CC0000;" vertex="1" connectable="0" parent="1BE5Hf5gePFDggwTTNd7-75">
          <mxGeometry x="0.1931" relative="1" as="geometry">
            <mxPoint x="-16.85" as="offset" />
          </mxGeometry>
        </mxCell>
        <mxCell id="1BE5Hf5gePFDggwTTNd7-77" value="" style="endArrow=none;html=1;" edge="1" parent="1">
          <mxGeometry width="50" height="50" relative="1" as="geometry">
            <mxPoint x="401" y="470" as="sourcePoint" />
            <mxPoint x="411" y="460" as="targetPoint" />
          </mxGeometry>
        </mxCell>
        <mxCell id="1BE5Hf5gePFDggwTTNd7-78" value="32" style="edgeLabel;html=1;align=center;verticalAlign=middle;resizable=0;points=[];fontColor=#CC0000;" vertex="1" connectable="0" parent="1BE5Hf5gePFDggwTTNd7-77">
          <mxGeometry x="0.1931" relative="1" as="geometry">
            <mxPoint x="-16.85" as="offset" />
          </mxGeometry>
        </mxCell>
        <mxCell id="1BE5Hf5gePFDggwTTNd7-89" value="SEL" style="edgeLabel;html=1;align=center;verticalAlign=middle;resizable=0;points=[];fontColor=#190033;" vertex="1" connectable="0" parent="1">
          <mxGeometry x="160.0000000000001" y="170.0045124851123" as="geometry" />
        </mxCell>
      </root>
    </mxGraphModel>
  </diagram>
</mxfile>
